/vscmnt/brussel_pixiu_data/_data_brussel/112/vsc11236/PredSimResults/SUBJ10mtu3D/worker1.mot
version=1
nRows=4
nColumns=50
inDegrees=yes
endheader
                time	         pelvis_tilt	         pelvis_list	     pelvis_rotation	           pelvis_tx	           pelvis_ty	           pelvis_tz	       hip_flexion_r	     hip_adduction_r	      hip_rotation_r	        knee_angle_r	       ankle_angle_r	         mtp_angle_r	       hip_flexion_l	     hip_adduction_l	      hip_rotation_l	        knee_angle_l	       ankle_angle_l	         mtp_angle_l	    lumbar_extension	      lumbar_bending	     lumbar_rotation	 ercspn_r/activation	 intobl_r/activation	 extobl_r/activation	    abd_r/activation	    add_r/activation	hamstrings_r/activation	bifemsh_r/activation	glut_max_r/activation	iliopsoas_r/activation	rect_fem_r/activation	  vasti_r/activation	gastroc_r/activation	 soleus_r/activation	tib_ant_r/activation	 ercspn_l/activation	 intobl_l/activation	 extobl_l/activation	    abd_l/activation	    add_l/activation	hamstrings_l/activation	bifemsh_l/activation	glut_max_l/activation	iliopsoas_l/activation	rect_fem_l/activation	  vasti_l/activation	gastroc_l/activation	 soleus_l/activation	tib_ant_l/activation	
          1.08807809	         -3.83388214	         -0.21891193	          7.16494385	          1.31657449	          0.82360559	         -0.01332503	         31.26720942	         -1.90116452	         -4.49637594	         -9.33016320	          5.49047965	          0.26458122	        -16.55550917	          0.35090342	          2.87364197	         -5.85741108	          8.49516666	         25.36039637	         -7.57133695	         -0.73735479	         -5.21393052	          0.11438124	          0.15443369	          0.00999999	          0.01025815	          0.14431572	          0.11245672	          0.20006501	          0.05190438	          0.05308481	          0.01000001	          0.00999999	          0.01947640	          0.01395578	          0.29723253	          0.12518233	          0.00999999	          0.00999999	          0.06491793	          0.01000000	          0.01000028	          0.20043716	          0.01066590	          0.30298543	          0.01000000	          0.00999999	          0.26911687	          0.21742274	          0.01973453	
          1.09895887	         -3.82771319	         -0.20074217	          7.20191610	          1.33227528	          0.82241923	         -0.01308505	         30.90364240	         -1.68823938	         -3.90424782	        -10.63181701	          5.20430841	          0.25155006	        -16.66865763	          0.28767923	          2.50305206	         -7.62487812	          7.81824963	         27.03317578	         -7.34529766	         -0.33062516	         -5.55467406	          0.09682278	          0.13072686	          0.00999999	          0.02064492	          0.12216208	          0.09601511	          0.16935339	          0.09954482	          0.04493586	          0.00999999	          0.00999999	          0.01648661	          0.01181345	          0.34331976	          0.13974757	          0.00999999	          0.00999999	          0.05495249	          0.01181343	          0.01615076	          0.16966841	          0.01000000	          0.25647468	          0.00999999	          0.00999999	          0.22780522	          0.20410919	          0.01670512	
          1.10983965	         -3.81675837	         -0.19329939	          7.19463769	          1.34812060	          0.82148876	         -0.01273606	         30.45152672	         -1.47847367	         -3.39344027	        -11.75829459	          4.78266048	          0.24431222	        -16.62871890	          0.21499046	          2.09493335	         -9.66905859	          7.01790254	         28.61083449	         -7.10926906	          0.08609702	         -5.87055325	          0.11921191	          0.11065921	          0.00999999	          0.08360626	          0.14312064	          0.08127600	          0.14335626	          0.11800893	          0.03803784	          0.00999999	          0.01000000	          0.01395578	          0.00999999	          0.37885755	          0.15595412	          0.00999999	          0.00999999	          0.04651684	          0.00999999	          0.01367178	          0.14362292	          0.00999999	          0.21710372	          0.01000000	          0.00999999	          0.19283525	          0.18599869	          0.01414075	
          1.12072043	         -3.80076482	         -0.18467766	          7.14318711	          1.36393693	          0.82093397	         -0.01228715	         30.00743027	         -1.26949213	         -2.98783597	        -12.88682857	          4.34751811	          0.23109256	        -16.38071924	          0.14670329	          1.64298091	        -12.05876060	          6.08960318	         29.98927359	         -6.88209670	          0.50009528	         -6.15515724	          0.11574409	          0.09367212	          0.00999999	          0.11939289	          0.19006609	          0.07081699	          0.12134990	          0.12034786	          0.03219872	          0.00999999	          0.02283659	          0.01181346	          0.00999999	          0.40746481	          0.18373862	          0.00999999	          0.00999999	          0.03937612	          0.01927214	          0.01837835	          0.12157563	          0.01000001	          0.18377652	          0.00999999	          0.00999999	          0.16323346	          0.15971306	          0.01197003	
